<svg width="512" height="512" viewBox="0 0 512 512" fill="#212529" xmlns="http://www.w3.org/2000/svg">
  <path d="M387.575 122C403.058 122.001 416.182 125.035 426.926 131.063C437.667 136.774 445.705 145.36 451.076 156.779C456.763 167.882 459.641 181.834 459.641 198.645V329.976C459.641 340.764 461.999 348.09 466.74 351.897C471.796 355.383 478.767 357.126 487.611 357.126H489V389H353.895V357.126H365.276C368.743 356.809 371.592 356.325 373.802 355.693C376.33 354.741 377.621 353.779 377.621 352.827V202.906C377.62 195.934 376.808 190.225 375.229 185.787C373.649 181.032 370.957 177.55 367.166 175.33C363.69 172.796 358.637 171.496 352.005 171.496C345.055 171.498 337.936 173.57 330.67 177.693C323.721 181.816 316.453 188.001 308.873 196.244C305.005 200.289 301.062 204.947 297.029 210.148V352.827C297.029 353.778 298.284 354.741 300.81 355.693C303.338 356.327 306.361 356.808 309.837 357.126H320.717V389H191.322V357.126H202.703C206.171 356.808 209.02 356.326 211.229 355.693C213.751 354.742 215.009 353.778 215.009 352.827V202.906C215.008 195.935 214.234 190.225 212.656 185.787C211.078 181.034 208.378 177.552 204.593 175.33C201.118 172.793 196.21 171.497 189.894 171.496C182.631 171.496 175.36 173.575 168.097 177.693C161.144 181.5 153.846 187.53 146.261 195.779C142.628 199.743 138.828 204.335 134.88 209.567V352.827C134.88 353.777 135.993 354.742 138.198 355.693C140.726 356.327 143.602 356.808 146.763 357.126H158.105V389H23V357.126H24.4274C33.2766 357.126 40.0953 355.387 44.8359 351.897C49.8913 348.09 52.3975 340.762 52.3975 329.976V180.559C52.3975 177.388 51.4751 174.832 49.5812 172.929C48.0033 171.028 45.3017 169.621 41.5181 168.669C37.7256 167.4 32.9711 166.104 27.2823 164.835L23 163.905V127.267H124.464L131.061 180.171C137.148 171.09 143.794 162.814 151.006 155.346C161.436 144.876 172.823 136.774 185.149 131.063C197.789 125.036 211.059 122 224.963 122C240.449 122 253.568 125.035 264.314 131.063C275.059 136.774 283.131 145.358 288.503 156.779C291.634 162.896 293.887 169.883 295.293 177.732C300.927 169.595 307.051 162.145 313.618 155.346C324.048 144.876 335.435 136.774 347.761 131.063C360.084 125.038 373.357 122 387.575 122Z" />
</svg>
